<svg width="384" height="102" viewBox="0 0 384 102" fill="none" xmlns="http://www.w3.org/2000/svg">
<rect width="384" height="102" fill="white"/>
<rect width="80" height="80" transform="translate(0 11)" fill="white"/>
<path fill-rule="evenodd" clip-rule="evenodd" d="M39.3434 17.8013C39.7627 17.6216 40.2372 17.6216 40.6565 17.8013L63.9898 27.8013C64.8359 28.1639 65.2278 29.1437 64.8652 29.9897C64.5026 30.8358 63.5228 31.2277 62.6767 30.8651L39.9999 21.1464L17.3231 30.8651C16.4771 31.2277 15.4973 30.8358 15.1347 29.9897C14.7721 29.1437 15.164 28.1639 16.0101 27.8013L39.3434 17.8013ZM39.9999 27.8306L22.3563 35.8504C21.5183 36.2313 20.5302 35.8608 20.1493 35.0228C19.7684 34.1849 20.139 33.1968 20.9769 32.8159L39.3103 24.4826C39.7485 24.2834 40.2514 24.2834 40.6896 24.4826L59.0229 32.8159C59.8609 33.1968 60.2314 34.1849 59.8505 35.0228C59.4697 35.8608 58.4816 36.2313 57.6436 35.8504L39.9999 27.8306Z" fill="#ED7700"/>
<path fill-rule="evenodd" clip-rule="evenodd" d="M40.6566 84.1987C40.2373 84.3784 39.7628 84.3784 39.3435 84.1987L16.0102 74.1987C15.1641 73.8361 14.7722 72.8563 15.1348 72.0103C15.4974 71.1642 16.4772 70.7723 17.3233 71.1349L40.0001 80.8536L62.6769 71.1349C63.5229 70.7723 64.5027 71.1642 64.8653 72.0103C65.2279 72.8563 64.836 73.8361 63.9899 74.1987L40.6566 84.1987ZM40.0001 74.1694L57.6437 66.1496C58.4817 65.7687 59.4698 66.1392 59.8507 66.9772C60.2316 67.8151 59.861 68.8032 59.0231 69.1841L40.6897 77.5174C40.2515 77.7166 39.7486 77.7166 39.3104 77.5174L20.9771 69.1841C20.1391 68.8032 19.7686 67.8151 20.1495 66.9772C20.5303 66.1392 21.5184 65.7687 22.3564 66.1496L40.0001 74.1694Z" fill="#ED7700"/>
<path fill-rule="evenodd" clip-rule="evenodd" d="M53.2066 63.3046C52.9486 63.9274 52.3409 64.3335 51.6668 64.3335H28.3334C27.413 64.3335 26.6668 63.5873 26.6668 62.6668L26.6668 39.3335C26.6668 38.6594 27.0729 38.0517 27.6956 37.7937C28.3184 37.5357 29.0353 37.6783 29.512 38.155L52.8453 61.4883C53.322 61.965 53.4645 62.6818 53.2066 63.3046ZM47.6431 61.0002L30.0001 43.3572L30.0001 61.0002H47.6431Z" fill="#ED7700"/>
<path d="M99.36 54.32V27.48H106.8C115.307 27.48 119.56 31.7867 119.56 40.4V41C119.56 49.88 115.32 54.32 106.84 54.32H99.36ZM101.52 52.44H106.88C110.453 52.44 113.067 51.5467 114.72 49.76C116.4 47.9733 117.24 45.1467 117.24 41.28V40.4C117.24 36.48 116.36 33.6667 114.6 31.96C112.867 30.2267 110.2 29.36 106.6 29.36H101.52V52.44ZM122.19 54.32L132.23 27.48H134.35L144.31 54.32H142.03L138.87 45.8H127.39L124.27 54.32H122.19ZM133.15 30.32L128.07 43.92H138.19L133.15 30.32ZM148.462 54.32V27.48H155.902C164.408 27.48 168.662 31.7867 168.662 40.4V41C168.662 49.88 164.422 54.32 155.942 54.32H148.462ZM150.622 52.44H155.982C159.555 52.44 162.168 51.5467 163.822 49.76C165.502 47.9733 166.342 45.1467 166.342 41.28V40.4C166.342 36.48 165.462 33.6667 163.702 31.96C161.968 30.2267 159.302 29.36 155.702 29.36H150.622V52.44ZM183.931 54.72C180.331 54.72 177.505 53.5467 175.451 51.2C173.398 48.8533 172.371 45.52 172.371 41.2V40.6C172.371 36.3333 173.398 33.0133 175.451 30.64C177.531 28.2667 180.385 27.08 184.011 27.08C187.585 27.08 190.385 28.2533 192.411 30.6C194.465 32.9467 195.491 36.28 195.491 40.6V41.2C195.491 45.44 194.451 48.76 192.371 51.16C190.318 53.5333 187.505 54.72 183.931 54.72ZM183.971 52.88C186.905 52.88 189.171 51.88 190.771 49.88C192.371 47.8533 193.171 45.0667 193.171 41.52V40.6C193.171 36.8933 192.385 34.0267 190.811 32C189.265 29.9733 186.958 28.9467 183.891 28.92C180.985 28.92 178.718 29.92 177.091 31.92C175.491 33.92 174.691 36.68 174.691 40.2V41.16C174.691 44.8667 175.465 47.7467 177.011 49.8C178.585 51.8533 180.905 52.88 183.971 52.88ZM215.927 54.32L203.527 40.68L215.687 27.48H218.047L206.287 40.52L218.487 54.32H215.927ZM200.727 54.32V27.48H202.887V54.32H200.727ZM227.434 54.32L220.634 27.48H222.834L228.634 50.92H228.674L235.514 27.48H237.354L244.034 50.92H244.114L249.954 27.48H251.914L245.154 54.32H242.954L236.394 31.24H236.314L229.634 54.32H227.434ZM266.431 54.72C262.831 54.72 260.005 53.5467 257.951 51.2C255.898 48.8533 254.871 45.52 254.871 41.2V40.6C254.871 36.3333 255.898 33.0133 257.951 30.64C260.031 28.2667 262.885 27.08 266.511 27.08C270.085 27.08 272.885 28.2533 274.911 30.6C276.965 32.9467 277.991 36.28 277.991 40.6V41.2C277.991 45.44 276.951 48.76 274.871 51.16C272.818 53.5333 270.005 54.72 266.431 54.72ZM266.471 52.88C269.405 52.88 271.671 51.88 273.271 49.88C274.871 47.8533 275.671 45.0667 275.671 41.52V40.6C275.671 36.8933 274.885 34.0267 273.311 32C271.765 29.9733 269.458 28.9467 266.391 28.92C263.485 28.92 261.218 29.92 259.591 31.92C257.991 33.92 257.191 36.68 257.191 40.2V41.16C257.191 44.8667 257.965 47.7467 259.511 49.8C261.085 51.8533 263.405 52.88 266.471 52.88ZM283.267 54.32V27.48H285.827L300.427 50.68H300.467V27.48H302.467V54.32H300.227L285.307 30.44H285.227V54.32H283.267Z" fill="black"/>
<path d="M116.86 76.98H119.82V75.62H116.86V68.54H115.22V86.52H116.86V76.98ZM105.46 80.64V71.62H112.16V70.26H103.82V82.04H105.24C108.6 82.04 111 81.94 113.72 81.4L113.54 80.04C110.96 80.52 108.66 80.64 105.46 80.64ZM138.498 68.54V79.14H134.858V80.36H138.498V82.2H140.138V68.54H138.498ZM131.198 75.52C133.818 75.52 135.618 74.3 135.618 72.38C135.618 70.5 133.818 69.26 131.198 69.26C128.578 69.26 126.778 70.5 126.778 72.38C126.778 74.3 128.578 75.52 131.198 75.52ZM131.198 70.48C132.898 70.48 134.058 71.24 134.058 72.38C134.058 73.58 132.898 74.3 131.198 74.3C129.498 74.3 128.338 73.58 128.338 72.38C128.338 71.24 129.498 70.48 131.198 70.48ZM130.558 78.1V81.56H132.198V78.02C133.818 77.92 135.458 77.74 137.058 77.5L136.918 76.32C133.118 76.8 128.678 76.84 125.358 76.84L125.578 78.2C127.098 78.2 128.778 78.18 130.558 78.1ZM140.598 86.08V84.74H129.558V80.86H127.918V86.08H140.598ZM149.537 71.68H160.537V72.32C160.537 75.04 160.417 77.4 159.917 80.1L161.537 80.3C162.177 76.94 162.177 74.6 162.177 72.32V70.34H149.537V71.68ZM164.077 83.96V82.62H157.897V76.68H156.277V82.62H153.457V76.68H151.837V82.62H147.857V83.96H164.077ZM178.355 75.82C182.235 75.82 184.655 74.56 184.655 72.4C184.655 70.24 182.235 68.96 178.355 68.96C174.495 68.96 172.055 70.24 172.055 72.4C172.055 74.56 174.495 75.82 178.355 75.82ZM178.355 70.26C181.255 70.26 182.975 71.04 182.975 72.4C182.975 73.76 181.255 74.54 178.355 74.54C175.455 74.54 173.735 73.76 173.735 72.4C173.735 71.04 175.455 70.26 178.355 70.26ZM182.195 80.78V78.5H186.475V77.18H170.255V78.5H174.535V80.78H172.055V82.1H182.835V86.5H184.475V80.78H182.195ZM176.175 78.5H180.555V80.78H176.175V78.5ZM208.894 78.8V77.48H201.594V75.34H207.034V74.02H196.334V70.58H206.874V69.26H194.694V75.34H199.954V77.48H192.654V78.8H208.894ZM206.914 80.54H194.454V81.88H205.254V86.62H206.914V80.54ZM215.112 71.76H225.692V70.44H221.212V68.44H219.572V70.44H215.112V71.76ZM228.972 74.86H231.632V73.5H228.972V68.56H227.332V79.76H228.972V74.86ZM224.692 75.94C224.692 73.96 222.952 72.68 220.392 72.68C217.852 72.68 216.112 73.94 216.112 75.92C216.112 77.9 217.852 79.16 220.392 79.16C222.952 79.16 224.692 77.9 224.692 75.94ZM217.672 75.94C217.672 74.74 218.712 73.96 220.392 73.96C222.072 73.96 223.132 74.72 223.132 75.92C223.132 77.12 222.072 77.9 220.392 77.9C218.712 77.9 217.672 77.14 217.672 75.94ZM228.972 80.74H217.332V82.08H227.332V86.5H228.972V80.74ZM239.131 71.68H250.131V72.32C250.131 75.04 250.011 77.4 249.511 80.1L251.131 80.3C251.771 76.94 251.771 74.6 251.771 72.32V70.34H239.131V71.68ZM253.671 83.96V82.62H247.491V76.68H245.871V82.62H243.051V76.68H241.431V82.62H237.451V83.96H253.671ZM267.949 75.82C271.829 75.82 274.249 74.56 274.249 72.4C274.249 70.24 271.829 68.96 267.949 68.96C264.089 68.96 261.649 70.24 261.649 72.4C261.649 74.56 264.089 75.82 267.949 75.82ZM267.949 70.26C270.849 70.26 272.569 71.04 272.569 72.4C272.569 73.76 270.849 74.54 267.949 74.54C265.049 74.54 263.329 73.76 263.329 72.4C263.329 71.04 265.049 70.26 267.949 70.26ZM271.789 80.78V78.5H276.069V77.18H259.849V78.5H264.129V80.78H261.649V82.1H272.429V86.5H274.069V80.78H271.789ZM265.769 78.5H270.149V80.78H265.769V78.5ZM295.288 68.54V79.14H291.648V80.36H295.288V82.2H296.928V68.54H295.288ZM287.988 75.52C290.608 75.52 292.408 74.3 292.408 72.38C292.408 70.5 290.608 69.26 287.988 69.26C285.368 69.26 283.568 70.5 283.568 72.38C283.568 74.3 285.368 75.52 287.988 75.52ZM287.988 70.48C289.688 70.48 290.848 71.24 290.848 72.38C290.848 73.58 289.688 74.3 287.988 74.3C286.288 74.3 285.128 73.58 285.128 72.38C285.128 71.24 286.288 70.48 287.988 70.48ZM287.348 78.1V81.56H288.988V78.02C290.608 77.92 292.248 77.74 293.848 77.5L293.708 76.32C289.908 76.8 285.468 76.84 282.148 76.84L282.368 78.2C283.888 78.2 285.568 78.18 287.348 78.1ZM297.388 86.08V84.74H286.348V80.86H284.708V86.08H297.388Z" fill="black"/>
</svg>
