<svg width="153" height="48" viewBox="0 0 153 48" fill="none" xmlns="http://www.w3.org/2000/svg">
<path d="M10 11L24 5L38 11M13 14L24 9L35 14" stroke="#ED7700" stroke-width="2" stroke-linecap="round" stroke-linejoin="round"/>
<path d="M38 37L24 43L10 37M35 34L24 39L13 34" stroke="#ED7700" stroke-width="2" stroke-linecap="round" stroke-linejoin="round"/>
<path d="M17 31H31L17 17V31Z" stroke="#ED7700" stroke-width="2" stroke-linecap="round" stroke-linejoin="round"/>
<path d="M49.68 22.16V8.74H53.4C57.6533 8.74 59.78 10.8933 59.78 15.2V15.5C59.78 19.94 57.66 22.16 53.42 22.16H49.68ZM50.76 21.22H53.44C55.2267 21.22 56.5333 20.7733 57.36 19.88C58.2 18.9867 58.62 17.5733 58.62 15.64V15.2C58.62 13.24 58.18 11.8333 57.3 10.98C56.4333 10.1133 55.1 9.68 53.3 9.68H50.76V21.22ZM61.0948 22.16L66.1148 8.74H67.1748L72.1548 22.16H71.0148L69.4348 17.9H63.6948L62.1348 22.16H61.0948ZM66.5748 10.16L64.0348 16.96H69.0948L66.5748 10.16ZM74.2308 22.16V8.74H77.9508C82.2041 8.74 84.3308 10.8933 84.3308 15.2V15.5C84.3308 19.94 82.2108 22.16 77.9708 22.16H74.2308ZM75.3108 21.22H77.9908C79.7774 21.22 81.0841 20.7733 81.9108 19.88C82.7508 18.9867 83.1708 17.5733 83.1708 15.64V15.2C83.1708 13.24 82.7308 11.8333 81.8508 10.98C80.9841 10.1133 79.6508 9.68 77.8508 9.68H75.3108V21.22ZM91.9656 22.36C90.1656 22.36 88.7523 21.7733 87.7256 20.6C86.699 19.4267 86.1856 17.76 86.1856 15.6V15.3C86.1856 13.1667 86.699 11.5067 87.7256 10.32C88.7656 9.13333 90.1923 8.54 92.0056 8.54C93.7923 8.54 95.1923 9.12667 96.2056 10.3C97.2323 11.4733 97.7456 13.14 97.7456 15.3V15.6C97.7456 17.72 97.2256 19.38 96.1856 20.58C95.159 21.7667 93.7523 22.36 91.9656 22.36ZM91.9856 21.44C93.4523 21.44 94.5856 20.94 95.3856 19.94C96.1856 18.9267 96.5856 17.5333 96.5856 15.76V15.3C96.5856 13.4467 96.1923 12.0133 95.4056 11C94.6323 9.98667 93.479 9.47333 91.9456 9.46C90.4923 9.46 89.359 9.96 88.5456 10.96C87.7456 11.96 87.3456 13.34 87.3456 15.1V15.58C87.3456 17.4333 87.7323 18.8733 88.5056 19.9C89.2923 20.9267 90.4523 21.44 91.9856 21.44ZM107.964 22.16L101.764 15.34L107.844 8.74H109.024L103.144 15.26L109.244 22.16H107.964ZM100.364 22.16V8.74H101.444V22.16H100.364ZM113.717 22.16L110.317 8.74H111.417L114.317 20.46H114.337L117.757 8.74H118.677L122.017 20.46H122.057L124.977 8.74H125.957L122.577 22.16H121.477L118.197 10.62H118.157L114.817 22.16H113.717ZM133.216 22.36C131.416 22.36 130.002 21.7733 128.976 20.6C127.949 19.4267 127.436 17.76 127.436 15.6V15.3C127.436 13.1667 127.949 11.5067 128.976 10.32C130.016 9.13333 131.442 8.54 133.256 8.54C135.042 8.54 136.442 9.12667 137.456 10.3C138.482 11.4733 138.996 13.14 138.996 15.3V15.6C138.996 17.72 138.476 19.38 137.436 20.58C136.409 21.7667 135.002 22.36 133.216 22.36ZM133.236 21.44C134.702 21.44 135.836 20.94 136.636 19.94C137.436 18.9267 137.836 17.5333 137.836 15.76V15.3C137.836 13.4467 137.442 12.0133 136.656 11C135.882 9.98667 134.729 9.47333 133.196 9.46C131.742 9.46 130.609 9.96 129.796 10.96C128.996 11.96 128.596 13.34 128.596 15.1V15.58C128.596 17.4333 128.982 18.8733 129.756 19.9C130.542 20.9267 131.702 21.44 133.236 21.44ZM141.634 22.16V8.74H142.914L150.214 20.34H150.234V8.74H151.234V22.16H150.114L142.654 10.22H142.614V22.16H141.634Z" fill="#ED7700"/>
<path d="M58.43 33.99H59.91V33.31H58.43V29.77H57.61V38.76H58.43V33.99ZM52.73 35.82V31.31H56.08V30.63H51.91V36.52H52.62C54.3 36.52 55.5 36.47 56.86 36.2L56.77 35.52C55.48 35.76 54.33 35.82 52.73 35.82ZM69.2492 29.77V35.07H67.4292V35.68H69.2492V36.6H70.0692V29.77H69.2492ZM65.5992 33.26C66.9092 33.26 67.8092 32.65 67.8092 31.69C67.8092 30.75 66.9092 30.13 65.5992 30.13C64.2892 30.13 63.3892 30.75 63.3892 31.69C63.3892 32.65 64.2892 33.26 65.5992 33.26ZM65.5992 30.74C66.4492 30.74 67.0292 31.12 67.0292 31.69C67.0292 32.29 66.4492 32.65 65.5992 32.65C64.7492 32.65 64.1692 32.29 64.1692 31.69C64.1692 31.12 64.7492 30.74 65.5992 30.74ZM65.2792 34.55V36.28H66.0992V34.51C66.9092 34.46 67.7292 34.37 68.5292 34.25L68.4592 33.66C66.5592 33.9 64.3392 33.92 62.6792 33.92L62.7892 34.6C63.5492 34.6 64.3892 34.59 65.2792 34.55ZM70.2992 38.54V37.87H64.7792V35.93H63.9592V38.54H70.2992ZM74.7684 31.34H80.2684V31.66C80.2684 33.02 80.2084 34.2 79.9584 35.55L80.7684 35.65C81.0884 33.97 81.0884 32.8 81.0884 31.66V30.67H74.7684V31.34ZM82.0384 37.48V36.81H78.9484V33.84H78.1384V36.81H76.7284V33.84H75.9184V36.81H73.9284V37.48H82.0384ZM89.1777 33.41C91.1177 33.41 92.3277 32.78 92.3277 31.7C92.3277 30.62 91.1177 29.98 89.1777 29.98C87.2477 29.98 86.0277 30.62 86.0277 31.7C86.0277 32.78 87.2477 33.41 89.1777 33.41ZM89.1777 30.63C90.6277 30.63 91.4877 31.02 91.4877 31.7C91.4877 32.38 90.6277 32.77 89.1777 32.77C87.7277 32.77 86.8677 32.38 86.8677 31.7C86.8677 31.02 87.7277 30.63 89.1777 30.63ZM91.0977 35.89V34.75H93.2377V34.09H85.1277V34.75H87.2677V35.89H86.0277V36.55H91.4177V38.75H92.2377V35.89H91.0977ZM88.0877 34.75H90.2777V35.89H88.0877V34.75ZM104.447 34.9V34.24H100.797V33.17H103.517V32.51H98.1669V30.79H103.437V30.13H97.3469V33.17H99.9769V34.24H96.3269V34.9H104.447ZM103.457 35.77H97.2269V36.44H102.627V38.81H103.457V35.77ZM107.556 31.38H112.846V30.72H110.606V29.72H109.786V30.72H107.556V31.38ZM114.486 32.93H115.816V32.25H114.486V29.78H113.666V35.38H114.486V32.93ZM112.346 33.47C112.346 32.48 111.476 31.84 110.196 31.84C108.926 31.84 108.056 32.47 108.056 33.46C108.056 34.45 108.926 35.08 110.196 35.08C111.476 35.08 112.346 34.45 112.346 33.47ZM108.836 33.47C108.836 32.87 109.356 32.48 110.196 32.48C111.036 32.48 111.566 32.86 111.566 33.46C111.566 34.06 111.036 34.45 110.196 34.45C109.356 34.45 108.836 34.07 108.836 33.47ZM114.486 35.87H108.666V36.54H113.666V38.75H114.486V35.87ZM119.565 31.34H125.065V31.66C125.065 33.02 125.005 34.2 124.755 35.55L125.565 35.65C125.885 33.97 125.885 32.8 125.885 31.66V30.67H119.565V31.34ZM126.835 37.48V36.81H123.745V33.84H122.935V36.81H121.525V33.84H120.715V36.81H118.725V37.48H126.835ZM133.975 33.41C135.915 33.41 137.125 32.78 137.125 31.7C137.125 30.62 135.915 29.98 133.975 29.98C132.045 29.98 130.825 30.62 130.825 31.7C130.825 32.78 132.045 33.41 133.975 33.41ZM133.975 30.63C135.425 30.63 136.285 31.02 136.285 31.7C136.285 32.38 135.425 32.77 133.975 32.77C132.525 32.77 131.665 32.38 131.665 31.7C131.665 31.02 132.525 30.63 133.975 30.63ZM135.895 35.89V34.75H138.035V34.09H129.925V34.75H132.065V35.89H130.825V36.55H136.215V38.75H137.035V35.89H135.895ZM132.885 34.75H135.075V35.89H132.885V34.75ZM147.644 29.77V35.07H145.824V35.68H147.644V36.6H148.464V29.77H147.644ZM143.994 33.26C145.304 33.26 146.204 32.65 146.204 31.69C146.204 30.75 145.304 30.13 143.994 30.13C142.684 30.13 141.784 30.75 141.784 31.69C141.784 32.65 142.684 33.26 143.994 33.26ZM143.994 30.74C144.844 30.74 145.424 31.12 145.424 31.69C145.424 32.29 144.844 32.65 143.994 32.65C143.144 32.65 142.564 32.29 142.564 31.69C142.564 31.12 143.144 30.74 143.994 30.74ZM143.674 34.55V36.28H144.494V34.51C145.304 34.46 146.124 34.37 146.924 34.25L146.854 33.66C144.954 33.9 142.734 33.92 141.074 33.92L141.184 34.6C141.944 34.6 142.784 34.59 143.674 34.55ZM148.694 38.54V37.87H143.174V35.93H142.354V38.54H148.694Z" fill="#ED7700"/>
</svg>
