<svg width="19" height="19" viewBox="0 0 19 19" fill="none" xmlns="http://www.w3.org/2000/svg">
<path d="M10.75 14.24C10.75 14.93 10.22 15.5 9.5 15.5C8.8 15.5 8.24 14.94 8.24 14.24C8.24 13.53 8.8 12.99 9.5 12.99C10.21 12.99 10.75 13.54 10.75 14.24ZM9.49 3.5C7.72 3.5 6.51 4.65 6.06 5.99L7.7 6.68C7.92 6.01 8.44 5.2 9.5 5.2C11.12 5.2 11.44 6.72 10.87 7.53C10.33 8.3 9.4 8.82 8.91 9.69C8.52 10.38 8.6 11.18 8.6 11.67H10.42C10.42 10.74 10.49 10.55 10.64 10.26C11.03 9.54 11.75 9.2 12.51 8.09C13.19 7.09 12.93 5.73 12.49 5.01C11.98 4.17 10.97 3.5 9.49 3.5ZM16.5 2.5H2.5V16.5H16.5V2.5ZM16.5 0.5C17.6 0.5 18.5 1.4 18.5 2.5V16.5C18.5 17.6 17.6 18.5 16.5 18.5H2.5C1.4 18.5 0.5 17.6 0.5 16.5V2.5C0.5 1.4 1.4 0.5 2.5 0.5H16.5Z" fill="#B00020"/>
</svg>
